<?xml version="1.0" encoding="UTF-8" standalone="no"?>
<!-- Created with Inkscape (http://www.inkscape.org/) -->

<svg
   width="131.70082mm"
   height="51.932938mm"
   viewBox="0 0 131.70082 51.932938"
   version="1.1"
   id="svg5"
   inkscape:version="1.2 (dc2aeda, 2022-05-15)"
   sodipodi:docname="QLAudioLogo.svg"
   xml:space="preserve"
   inkscape:export-filename="QL Logo 4.svg"
   inkscape:export-xdpi="215.95494"
   inkscape:export-ydpi="215.95494"
   xmlns:inkscape="http://www.inkscape.org/namespaces/inkscape"
   xmlns:sodipodi="http://sodipodi.sourceforge.net/DTD/sodipodi-0.dtd"
   xmlns="http://www.w3.org/2000/svg"
   xmlns:svg="http://www.w3.org/2000/svg"><sodipodi:namedview
     id="namedview7"
     pagecolor="#cdcdcd"
     bordercolor="#999999"
     borderopacity="1"
     inkscape:showpageshadow="0"
     inkscape:pageopacity="0"
     inkscape:pagecheckerboard="0"
     inkscape:deskcolor="#d1d1d1"
     inkscape:document-units="mm"
     showgrid="false"
     inkscape:zoom="0.64515723"
     inkscape:cx="197.62624"
     inkscape:cy="271.25171"
     inkscape:window-width="1440"
     inkscape:window-height="802"
     inkscape:window-x="0"
     inkscape:window-y="23"
     inkscape:window-maximized="0"
     inkscape:current-layer="svg5"
     showguides="true"><inkscape:grid
       type="xygrid"
       id="grid146" /><sodipodi:guide
       position="65.516613,109.55045"
       orientation="1,0"
       id="guide518"
       inkscape:locked="false" /><sodipodi:guide
       position="28.453092,111.08521"
       orientation="0,-1"
       id="guide520"
       inkscape:locked="false" /></sodipodi:namedview><defs
     id="defs2" /><path
     id="path760"
     d="m 130.41668,19.042597 q 0.28188,-0.21924 0.50113,-0.21924 0.1566,0 0.34452,0.1566 0.21924,0.12528 0.43848,0.53245 -1.22149,1.44072 -2.81881,2.12976 -1.56601,0.65772 -3.72709,0.65772 -1.22149,0 -2.41165,-0.37584 -1.15884,-0.40716 -2.09845,-1.22148 -0.9396,-0.84564 -1.53468,-2.09845 -0.56376,-1.2528 -0.56376,-3.00673 0,-1.7226 0.65772,-3.10069 0.68904,-1.4094 1.7226,-2.38032 1.03357,-0.9709294 2.25505,-1.4720494 1.22148,-0.53244 2.34901,-0.53244 3.03805,0 4.57273,1.75392 1.56601,1.7539294 1.56601,4.7919794 0,0.21924 -0.21924,0.21924 l -8.98887,0.37584 q 0,2.44297 1.0962,3.75841 1.09621,1.28413 3.28861,1.28413 0.97093,0 1.91053,-0.3132 0.9396,-0.3132 1.65996,-0.93961 z m -5.35573,-9.5526294 q -1.22149,0 -1.97317,1.0648894 -0.72036,1.03356 -0.72036,3.28861 l 4.88593,-0.21924 q 0.46981,-0.0313 0.46981,-0.40716 0,-0.59509 -0.15661,-1.25281 -0.1566,-0.65772 -0.50112,-1.19016 -0.3132,-0.56376 -0.81432,-0.9082894 -0.50112,-0.37584 -1.19016,-0.37584 z m -9.396,-1.34676 q 0.90828,0 1.34676,0.4698 0.4698,0.4698 0.4698,1.19016 0,0.2192394 -0.094,0.3758494 -0.0626,0.1566 -0.34452,0.34452 -0.25056,0.18792 -0.72036,0.43848 -0.4698,0.21924 -1.22149,0.56376 -0.50112,-0.50112 -0.9396,-0.65772 -0.40716,-0.18792 -0.81432,-0.18792 -0.37584,0 -0.75168,0.12528 -0.34453,0.12528 -0.62641,0.50112 -0.28188,0.34452 -0.4698,0.9396 -0.1566,0.59508 -0.1566,1.53469 v 5.82554 q 0,0.6264 0.50112,0.9396 0.50112,0.28188 1.97317,0.53244 0.34452,0.0626 0.34452,0.40716 0,0.43848 -0.0626,0.59508 -0.40716,-0.0313 -1.00224,-0.0626 -0.59508,0 -1.25281,-0.0313 -0.65772,-0.0313 -1.31544,-0.0626 -0.6264,0 -1.12752,0 -1.19017,0 -2.03581,0.0313 -0.84564,0.0626 -1.59733,0.12528 -0.0626,-0.1566 -0.0626,-0.59508 0,-0.34452 0.34452,-0.40716 1.00225,-0.18792 1.37809,-0.40716 0.37584,-0.21924 0.37584,-0.68904 v -8.42511 q 0,-0.72036 -0.28188,-1.15884 -0.25056,-0.4384894 -1.47205,-0.5950894 -0.43848,-0.0626 -0.43848,-0.4698 0,-0.094 0,-0.25056 0,-0.1566 0.0626,-0.25056 0.18792,0 0.53244,0 0.34453,-0.0313 0.75169,-0.0313 0.40716,-0.0313 0.81432,-0.0626 0.40716,-0.0313 0.72036,-0.094 0.68904,-0.094 1.40941,-0.21924 0.75168,-0.1566 1.00224,-0.1566 0.43848,0 0.43848,0.4698 v 1.6912894 q 1.0962,-1.1901694 2.09845,-1.7226094 1.00224,-0.56376 2.22373,-0.56376 z M 88.980242,15.221547 q 0,-1.53468 0.53244,-2.81881 0.56377,-1.31544 1.53469,-2.25504 0.97092,-0.9709294 2.31769,-1.5033694 1.34676,-0.53244 2.94409,-0.53244 1.65996,0 3.00672,0.53244 1.346768,0.53244 2.317688,1.5033694 0.97093,0.9396 1.47205,2.25504 0.53244,1.28413 0.53244,2.81881 0,1.53469 -0.56376,2.85013 -0.53244,1.28412 -1.53469,2.22373 -0.97092,0.9396 -2.317688,1.47204 -1.34676,0.53244 -2.94408,0.53244 -1.65997,0 -3.00673,-0.53244 -1.34677,-0.53244 -2.31769,-1.47204 -0.93961,-0.93961 -1.47205,-2.22373 -0.50112,-1.31544 -0.50112,-2.85013 z m 3.94633,-0.6264 q 0,2.88145 0.93961,4.60405 0.97092,1.72261 2.75617,1.72261 1.65996,0 2.349,-1.31544 0.72037,-1.34677 0.72037,-3.75842 0,-2.85013 -0.97093,-4.60405 -0.97092,-1.7539294 -2.72485,-1.7539294 -1.65996,0 -2.38032,1.3780894 -0.68905,1.34676 -0.68905,3.72709 z m -5.76285,7.4855 q -0.81432,-0.0626 -1.87921,-0.12528 -1.03356,-0.0313 -1.94184,-0.0313 -1.00225,0 -2.00449,0.0313 -0.97092,0.0626 -1.78525,0.12528 -0.0313,-0.12528 -0.0626,-0.25056 0,-0.1566 0,-0.34452 0,-0.21924 0.094,-0.28188 0.12528,-0.094 0.25057,-0.12528 1.00224,-0.18792 1.37808,-0.40716 0.37584,-0.21924 0.37584,-0.68904 V 3.5704676 q 0,-0.9396 -0.34452,-1.4094 -0.34452,-0.50112 -1.44072,-0.59508 -0.40717,-0.094 -0.40717,-0.50112 0,-0.094 0,-0.25056001 0,-0.156605 0.0626,-0.250566 0.18792,0 0.53245,0 0.37584,-0.03132 0.783,-0.03132 0.40716,-0.03132 0.81432,-0.06264 0.40716,-0.03132 0.75168,-0.06264 0.78301,-0.09396 1.50337,-0.250561 0.72036,-0.156600006809 0.97092,-0.156600006809 0.50112,0 0.50112,0.469801006809 0,0.344526 -0.094,0.90828601 -0.094,0.53244 -0.094,1.53468 V 19.982207 q 0,0.4698 0.37584,0.68904 0.37584,0.21924 1.37809,0.40716 0.34452,0.0626 0.34452,0.40716 0,0.43848 -0.0626,0.59508 z m -9.99108,-2.1924 q 0.3132,-0.18792 0.53245,-0.18792 0.3132,0 0.65772,0.65772 -1.31545,1.19016 -2.31769,1.566 -0.97092,0.37584 -2.06713,0.37584 -0.6264,0 -1.22148,-0.1566 -0.56376,-0.1566 -1.03356,-0.56376 -0.46981,-0.40716 -0.75169,-1.0962 -0.28188,-0.72036 -0.28188,-1.81657 v -8.61303 h -1.8792 V 9.2707276 q 0,-0.12528 0.0626,-0.3132 0.0626,-0.18792 0.37584,-0.18792 0.84564,0 1.566,-0.4698 0.72037,-0.50112 1.15885,-1.47205 0.34452,-0.72036 0.75168,-1.15884 0.43848,-0.43848 0.84564,-0.43848 h 0.65772 v 3.25729 h 3.66446 q 0,1.00224 -0.1566,1.28412 -0.12529,0.2818794 -0.50113,0.2818794 h -3.00673 v 7.73607 q 0,0.9396 0.0626,1.50336 0.0626,0.53245 0.18792,0.81433 0.15661,0.28188 0.37585,0.37584 0.25056,0.0626 0.56376,0.0626 0.34452,0 0.81432,-0.1566 0.4698,-0.18792 0.9396,-0.50112 z m -11.74501,-7.57947 q -0.43848,-0.0313 -0.50112,-0.34452 -0.21924,-1.28412 -1.00224,-1.8792 -0.78301,-0.5950894 -1.97317,-0.5950894 -1.06488,0 -1.628646,0.5324394 -0.563762,0.53245 -0.563762,1.25281 0,0.34452 0.09396,0.6264 0.09396,0.28188 0.375841,0.53244 0.313201,0.25056 0.845647,0.50112 0.53244,0.21924 1.44072,0.50113 1.06488,0.3132 1.87921,0.68904 0.81432,0.34452 1.37808,0.84564 0.56376,0.50112 0.84564,1.22148 0.3132,0.68905 0.3132,1.65997 0,0.90828 -0.3132,1.72261 -0.28188,0.81432 -0.9396,1.44072 -0.65772,0.59508 -1.65996,0.9396 -1.00225,0.34452 -2.41165,0.34452 -1.00225,0 -2.31769,-0.21924 -1.284124,-0.21924 -2.349007,-0.783 -0.06264,-0.81432 -0.125281,-1.7226 -0.03132,-0.93961 -0.03132,-1.84789 h 0.407161 q 0.344522,0 0.595082,0.12528 0.250561,0.094 0.281881,0.34452 0.125281,1.31545 1.033564,2.03581 0.908283,0.68904 2.50561,0.68904 1.0962,0 1.78524,-0.50112 0.68905,-0.50112 0.68905,-1.31545 0,-0.75168 -0.62641,-1.28412 -0.59508,-0.53244 -2.28636,-1.03356 -2.286371,-0.65773 -3.225974,-1.72261 -0.908283,-1.0962 -0.908283,-2.59957 0,-1.97316 1.315444,-3.1633294 1.346765,-1.19016 3.476533,-1.19016 1.22148,0 2.34901,0.3132 1.15884,0.28188 1.84788,0.6264 0.0313,0.25056 0.0626,0.68904 0.0313,0.4071694 0.0626,0.9082894 0.0313,0.4698 0.0313,0.9396 0.0313,0.43848 0.0313,0.75168 z m -12.089552,6.73382 q 0.281881,-0.21924 0.501122,-0.21924 0.1566,0 0.344521,0.1566 0.219241,0.12528 0.438481,0.53245 -1.221484,1.44072 -2.818809,2.12976 -1.566005,0.65772 -3.727092,0.65772 -1.221484,0 -2.411648,-0.37584 -1.158843,-0.40716 -2.098446,-1.22148 -0.939603,-0.84564 -1.534685,-2.09845 -0.563762,-1.2528 -0.563762,-3.00673 0,-1.7226 0.657722,-3.10069 0.689042,-1.4094 1.722606,-2.38032 1.033563,-0.9709294 2.255047,-1.4720494 1.221484,-0.53244 2.349007,-0.53244 3.03805,0 4.572735,1.75392 1.566005,1.7539294 1.566005,4.7919794 0,0.21924 -0.219241,0.21924 l -8.988868,0.37584 q 0,2.44297 1.096203,3.75841 1.096204,1.28413 3.288611,1.28413 0.970923,0 1.910526,-0.3132 0.939603,-0.3132 1.659965,-0.93961 z M 47.982343,9.4899676 q -1.221484,0 -1.973166,1.0648894 -0.720363,1.03356 -0.720363,3.28861 l 4.885936,-0.21924 q 0.469801,-0.0313 0.469801,-0.40716 0,-0.59509 -0.1566,-1.25281 -0.156601,-0.65772 -0.501122,-1.19016 -0.313201,-0.56376 -0.814322,-0.9082894 -0.501122,-0.37584 -1.190164,-0.37584 z M 25.181362,11.243897 q 0,-0.75168 -0.25056,-1.0962 -0.219241,-0.3445294 -1.284125,-0.4698094 -0.438481,-0.094 -0.438481,-0.43848 0,-0.094 0,-0.25056 0,-0.1566 0.06264,-0.3132 0.187921,0 0.532442,0 0.344521,-0.0313 0.720362,-0.0313 0.375841,-0.0313 0.751683,-0.0626 0.407161,-0.0313 0.720362,-0.094 0.720362,-0.094 1.378084,-0.21924 0.657723,-0.1566 0.908283,-0.1566 0.281881,0 0.344521,0.12528 0.09396,0.12528 0.09396,0.34452 v 8.0179494 q 0,1.81656 0.438481,2.53692 0.469802,0.68905 1.472045,0.68905 1.409404,0 2.411648,-0.93961 1.002243,-0.9396 1.002243,-2.85013 v -4.79197 q 0,-0.37584 -0.06264,-0.6264 -0.03132,-0.28188 -0.187921,-0.4698 -0.1566,-0.1879294 -0.469801,-0.2818894 -0.281881,-0.12528 -0.814323,-0.18792 -0.187921,-0.0626 -0.344521,-0.12528 -0.125281,-0.0626 -0.125281,-0.3132 0,-0.094 0,-0.25056 0.03132,-0.1566 0.06264,-0.3132 0.21924,0 0.532441,0 0.344521,-0.0313 0.720363,-0.0313 0.407161,-0.0313 0.783002,-0.0626 0.407162,-0.0313 0.720363,-0.094 0.689042,-0.094 1.346764,-0.21924 0.689042,-0.1566 0.939603,-0.1566 0.438481,0 0.438481,0.4698 V 19.011317 q 0,0.37584 0.03132,0.65773 0.06264,0.25056 0.219241,0.43848 0.156601,0.18792 0.469802,0.3132 0.313201,0.094 0.845642,0.1566 0.407162,0.0313 0.407162,0.40716 0,0.1566 0,0.3132 0,0.1566 -0.06264,0.25056 -0.407161,0 -1.284124,0.0626 -0.845642,0.0313 -1.440724,0.12528 -0.689043,0.094 -1.378085,0.21924 -0.657722,0.1566 -0.908283,0.1566 -0.281881,0 -0.375841,-0.12528 -0.06264,-0.094 -0.06264,-0.34452 v -2.25505 q -1.002243,1.31545 -2.223727,2.12977 -1.221484,0.783 -2.536928,0.783 -1.910527,0 -3.00673,-1.03356 -1.096204,-1.06488 -1.096204,-3.16333 z m -11.588428,10.77411 q 1.064883,0.28188 1.847886,0.72037 0.783002,0.4698 1.409404,0.97092 0.657722,0.53244 1.221484,1.06488 0.595082,0.53244 1.284124,1.00225 0.720363,0.50112 1.190164,0.59508 0.501122,0.12528 0.908283,0.12528 0.407161,0 0.689042,-0.12528 0.313201,-0.094 0.469802,-0.094 0.18792,0 0.313201,0.12528 0.12528,0.12528 0.18792,0.28188 -0.689042,0.783 -1.566005,1.2528 -0.845642,0.50112 -1.879206,0.50112 -1.816566,0 -3.13201,-0.75168 -1.284124,-0.75168 -2.442968,-1.78524 -1.127523,-1.00225 -2.349007,-2.06713 -1.190164,-1.03356 -2.8188083,-1.65997 -2.004487,-0.34452 -3.664452,-1.22148 -1.628645,-0.90828 -2.818809,-2.25505 -1.158844,-1.37808 -1.81656601,-3.13201 -0.626401997861,-1.75392 -0.626401997861,-3.82105 0,-2.1924094 0.814322997861,-4.1029294 0.84564201,-1.91053 2.28636701,-3.35125 1.440725,-1.44073 3.351251,-2.25505 1.941846,-0.84564 4.1342523,-0.84564 2.255047,0 4.196893,0.783 1.941847,0.783 3.351251,2.19241 1.440725,1.4094 2.255048,3.35125 0.814322,1.94184 0.814322,4.2282094 0,1.75393 -0.532442,3.38257 -0.532441,1.62865 -1.534684,2.97541 -0.970924,1.31545 -2.380328,2.31769 -1.409405,1.00224 -3.16333,1.47204 z m -2.536928,-1.34676 q 1.315444,0 2.380327,-0.56376 1.064884,-0.59508 1.816566,-1.59733 0.783003,-1.00224 1.190164,-2.34901 0.438481,-1.34676 0.438481,-2.88144 0,-2.22373 -0.438481,-4.1342594 -0.407161,-1.91052 -1.284124,-3.28861 -0.845643,-1.4094 -2.161087,-2.19241 -1.284124,-0.81432 -3.0067293,-0.81432 -1.096203,0 -2.129767,0.50112 -1.033563,0.4698 -1.816566,1.40941 -0.783002,0.90828 -1.252804,2.22373 -0.469801,1.31544 -0.469801,2.9754 0,2.3176894 0.438481,4.2908594 0.469802,1.97316 1.315444,3.41389 0.876963,1.4094 2.129767,2.22373 1.252804,0.783 2.8501293,0.783 z m 92.954214,1.51135 c -1.36886,0.002 -4.623418,0.96784 -5.614128,2.84272 l -19.6603,0.009 -25.914692,0.0103 -25.914698,0.0103 c -0.952918,2.60464 -2.299833,3.54208 -3.721736,4.17443 0.696227,0.2223 4.752618,0.0644 5.94589,-0.6594 0.753269,0.46372 2.171738,0.87468 4.676717,1.09916 -8.487523,2.58581 -20.37124,2.15787 -24.2972243,-4.54907 l -8.53229601,-0.10542 c 3.26620401,13.65984 31.97532231,13.52588 36.38382531,13.55266 0.746782,-2.41195 6.282357,-4.28104 13.259656,-4.29121 15.952998,-0.0233 31.920478,0.003 47.878728,0.003 2.030178,4.14338 7.194738,5.00951 10.900108,5.00951 6.82437,0.0227 11.02165,-2.22997 12.32483,-7.691 0.0558,0.0299 0.1196,0.0475 0.18759,0.0475 h 0.10697 c 0.15183,0 0.28282,-0.085 0.34933,-0.20981 l 3.55017,1.53169 4.64623,-3.32538 -4.64623,-3.31452 -3.5512,1.53634 c -0.0668,-0.1237 -0.1973,-0.20723 -0.3483,-0.20723 h -0.10697 c -0.10865,0 -0.20712,0.0433 -0.27854,0.11369 -0.20165,-1.06504 -1.17975,-1.92091 -1.97047,-2.12609 0.23257,0.96492 0.23257,1.74715 0.2465,2.28404 l -16.85732,-0.0106 c -0.006,-1.97526 0.29785,-4.14118 0.95756,-5.73453 z m -14.962388,6.1004 c 0.59105,0.73837 1.87446,1.35981 3.62975,1.36684 -1.76166,0.006 -3.0285,0.62063 -3.63027,1.35134 -0.87613,-1.002 -6.97179,-1.33067 -9.52758,-1.35082 2.55539,4.5e-4 8.64886,-0.35358 9.5281,-1.36736 z m 36.740908,0.48524 1.39526,0.87747 -1.40301,0.88211 -1.17719,-0.87746 z m -22.54333,2.59829 16.49635,-0.055 c -0.96731,3.8791 -4.54112,5.33622 -8.9915,5.15037 -5.03997,-0.21048 -7.34662,-2.69139 -7.50485,-5.09533 z m -19.294538,15.53286 q 0,-1.09133 0.37863,-2.00449 0.4009,-0.93544 1.09134,-1.6036 0.69044,-0.69044 1.64814,-1.06907 0.9577,-0.37862 2.09359,-0.37862 1.18042,0 2.13813,0.37862 0.9577,0.37863 1.64814,1.06907 0.69044,0.66816 1.04679,1.6036 0.37863,0.91316 0.37863,2.00449 0,1.09134 -0.4009,2.02677 -0.37863,0.91317 -1.09134,1.58133 -0.69043,0.66817 -1.64814,1.04679 -0.9577,0.37863 -2.09359,0.37863 -1.18042,0 -2.13813,-0.37863 -0.9577,-0.37862 -1.64814,-1.04679 -0.66817,-0.66816 -1.04679,-1.58133 -0.35636,-0.93543 -0.35636,-2.02677 z m 2.8063,-0.44544 q 0,2.04904 0.66817,3.27401 0.69043,1.22498 1.95995,1.22498 1.18043,0 1.67041,-0.93544 0.51226,-0.9577 0.51226,-2.67266 0,-2.02677 -0.69043,-3.27401 -0.69044,-1.24725 -1.93769,-1.24725 -1.18042,0 -1.69268,0.97998 -0.48999,0.9577 -0.48999,2.65039 z m -6.83752,5.2117 q -0.86862,0 -1.49224,0.0223 -0.62362,0.0445 -1.2027,0.0891 -0.0445,-0.22273 -0.0445,-0.42318 0,-0.1559 0.0668,-0.20045 0.0891,-0.0668 0.17818,-0.0891 0.71271,-0.13364 0.97998,-0.28954 0.26726,-0.15591 0.26726,-0.48999 v -5.87986 q 0,-0.66817 -0.22272,-1.02452 -0.22272,-0.35636 -1.04679,-0.42317 -0.28954,-0.0445 -0.28954,-0.35636 0,-0.0668 0,-0.15591 0,-0.11136 0.0445,-0.20044 0.13364,0 0.37863,0 0.26727,-0.0223 0.55681,-0.0223 0.28953,-0.0223 0.57907,-0.0445 0.28954,-0.0223 0.53454,-0.0445 0.5568,-0.0668 1.06906,-0.17817 0.51226,-0.11136 0.69044,-0.11136 0.35636,0 0.35636,0.33408 0,0.24499 -0.0668,0.64589 -0.0668,0.4009 -0.0668,1.11361 v 6.34758 q 0,0.33408 0.28954,0.48999 0.28954,0.1559 0.9577,0.28954 0.245,0.0445 0.245,0.28953 0,0.11137 0,0.22273 0,0.11136 -0.0446,0.20045 -0.5568,-0.0446 -1.20269,-0.0891 -0.6459,-0.0223 -1.51451,-0.0223 z m -1.62587,-13.07379 q 0,-0.71271 0.44544,-1.15815 0.46772,-0.46772 1.15815,-0.46772 0.71271,0 1.15816,0.46772 0.44544,0.44544 0.44544,1.15815 0,0.71271 -0.44544,1.18043 -0.44545,0.44544 -1.15816,0.44544 -0.69043,0 -1.15815,-0.44544 -0.44544,-0.46772 -0.44544,-1.18043 z m -3.78626,11.00247 q 0,0.26727 0.0223,0.46772 0.0223,0.17817 0.13363,0.31181 0.11136,0.13363 0.33408,0.22272 0.22273,0.0668 0.60135,0.11136 0.31182,0.0446 0.31182,0.28954 0,0.11136 0,0.22272 0,0.11136 -0.0446,0.17818 -0.28954,0 -0.91316,0.0445 -0.60135,0.0223 -1.02452,0.0891 -0.48999,0.0668 -0.97998,0.15591 -0.46771,0.11136 -0.64589,0.11136 -0.20045,0 -0.26727,-0.0891 -0.0445,-0.0668 -0.0445,-0.24499 v -1.33634 q -0.28954,0.4009 -0.60135,0.73499 -0.31181,0.33408 -0.71271,0.57907 -0.37863,0.22273 -0.86862,0.35636 -0.48999,0.13363 -1.11361,0.13363 -0.86861,0 -1.62587,-0.31181 -0.73498,-0.31181 -1.29179,-0.91316 -0.5568,-0.62362 -0.86861,-1.51451 -0.31181,-0.89089 -0.31181,-2.02677 0,-1.22497 0.46771,-2.20495 0.48999,-1.00225 1.22497,-1.69268 0.73499,-0.69044 1.6036,-1.0468 0.86862,-0.37862 1.67042,-0.37862 0.64589,0 1.18042,0.13363 0.55681,0.11136 1.24725,0.33408 v -3.69718 q 0,-0.69044 -0.22272,-1.00225 -0.22273,-0.33409 -1.0468,-0.42317 -0.13363,-0.0446 -0.22272,-0.11137 -0.0891,-0.0668 -0.0891,-0.24499 0,-0.13363 0.0446,-0.35635 0.1559,0 0.4009,0 0.24499,-0.0223 0.53453,-0.0223 0.28954,-0.0223 0.57908,-0.0445 0.28953,-0.0223 0.53453,-0.0446 0.57908,-0.0668 1.06906,-0.17817 0.51226,-0.11136 0.69044,-0.11136 0.37863,0 0.37863,0.33408 0,0.42317 -0.0668,0.97998 -0.0668,0.53453 -0.0668,1.24724 z m -2.51676,-5.74623 q -1.02452,-1.02452 -2.31631,-1.02452 -1.15816,0 -1.71496,1.02452 -0.55681,1.00225 -0.55681,2.76176 0,0.84634 0.13364,1.60359 0.1559,0.73499 0.44544,1.29179 0.28954,0.53453 0.73498,0.84635 0.46772,0.31181 1.11361,0.31181 0.4009,0 0.77953,-0.245 0.4009,-0.26726 0.69044,-0.66816 0.31181,-0.4009 0.48999,-0.91316 0.20045,-0.51226 0.20045,-1.02453 z m -18.97588,0.22273 q 0,-0.53454 -0.178177,-0.77953 -0.155906,-0.245 -0.913161,-0.33408 -0.31181,-0.0668 -0.31181,-0.31182 0,-0.0668 0,-0.17817 0,-0.11136 0.04454,-0.22272 0.133633,0 0.378627,0 0.244995,-0.0223 0.512261,-0.0223 0.267266,-0.0223 0.534533,-0.0445 0.289538,-0.0223 0.51226,-0.0668 0.512261,-0.0668 0.979977,-0.1559 0.467716,-0.11136 0.645894,-0.11136 0.20045,0 0.244994,0.0891 0.06682,0.0891 0.06682,0.245 v 5.70168 q 0,1.29179 0.311811,1.80405 0.334083,0.48999 1.046793,0.48999 1.002249,0 1.714959,-0.66817 0.712711,-0.66816 0.712711,-2.02677 v -3.40764 q 0,-0.26727 -0.04454,-0.44545 -0.02227,-0.20045 -0.133633,-0.33408 -0.111361,-0.13363 -0.334083,-0.20045 -0.20045,-0.0891 -0.579077,-0.13363 -0.133633,-0.0445 -0.244994,-0.0891 -0.08909,-0.0445 -0.08909,-0.22273 0,-0.0668 0,-0.17817 0.02227,-0.11136 0.04454,-0.22272 0.155906,0 0.378628,0 0.244994,-0.0223 0.51226,-0.0223 0.289539,-0.0223 0.556805,-0.0445 0.289539,-0.0223 0.512261,-0.0668 0.489988,-0.0668 0.957701,-0.1559 0.48999,-0.11136 0.66817,-0.11136 0.31181,0 0.31181,0.33408 v 7.41664 q 0,0.26727 0.0223,0.46772 0.0446,0.17817 0.15591,0.31181 0.11136,0.13363 0.33408,0.22272 0.22272,0.0668 0.60135,0.11136 0.28954,0.0223 0.28954,0.28954 0,0.11136 0,0.22272 0,0.11136 -0.0445,0.17818 -0.28954,0 -0.91316,0.0445 -0.60135,0.0223 -1.02453,0.0891 -0.48998,0.0668 -0.979974,0.15591 -0.467716,0.11136 -0.645893,0.11136 -0.20045,0 -0.267267,-0.0891 -0.04454,-0.0668 -0.04454,-0.24499 v -1.6036 q -0.712711,0.93543 -1.581326,1.51451 -0.868616,0.5568 -1.804049,0.5568 -1.358604,0 -2.138131,-0.73498 -0.779527,-0.75726 -0.779527,-2.24949 z m -7.104812,2.69493 h -4.677162 l -1.158154,3.09584 q -0.06682,0.11136 -0.08909,0.24499 -0.02227,0.13363 -0.02227,0.20045 0,0.245 0.222722,0.4009 0.244994,0.15591 0.957704,0.26727 0.311811,0.0445 0.311811,0.42317 0,0.1559 -0.04454,0.37863 -0.60135,-0.0446 -1.269516,-0.0891 -0.668166,-0.0223 -1.314059,-0.0223 -0.445444,0 -0.935433,0.0223 -0.489988,0.0223 -1.091337,0.0891 -0.04454,-0.0891 -0.04454,-0.20045 0,-0.11136 0,-0.17818 0,-0.42317 0.289539,-0.44544 0.690438,-0.13364 0.979976,-0.28954 0.311811,-0.15591 0.489989,-0.53454 l 5.3676,-12.82878 q 0.178178,-0.37863 0.534533,-0.37863 0.111361,0 0.222722,0.0223 0.111361,0 0.244994,0.0223 l 5.3676,13.22969 q 0.133633,0.33408 0.512261,0.51226 0.378627,0.15591 0.824071,0.22272 0.334083,0.0668 0.334083,0.44545 0,0.17817 -0.04454,0.4009 -0.712711,-0.0446 -1.403149,-0.0891 -0.690438,-0.0223 -1.291788,-0.0223 -0.31181,0 -0.757254,0 -0.445444,0.0223 -0.91316,0.0445 -0.467717,0.0223 -0.935433,0.0223 -0.445444,0.0223 -0.757255,0.0446 -0.04454,-0.0891 -0.04454,-0.20045 0,-0.11136 0,-0.17818 0,-0.20045 0.06682,-0.28954 0.08909,-0.11136 0.178177,-0.13363 0.579077,-0.11136 0.846344,-0.245 0.289538,-0.1559 0.289538,-0.44544 0,-0.13363 -0.06682,-0.33408 z m -0.423172,-1.11361 -1.893137,-5.01124 -1.937681,5.01124 z"
     style="font-weight:bold;font-size:31.3201px;font-family:Athelas;-inkscape-font-specification:'Athelas, Bold';display:inline;fill:#ffffff;fill-opacity:1;stroke-width:0.264583"
     inkscape:label="logo" /></svg>
